# xmcd
#
# Track frame offsets: 
#        150
#        13517
#        37022
#        63625
#        80500
#        105075
#        121537
#        135777
#        154305
#        167567
#
# Disc length: 2428 seconds
#
# Revision: 0
# Processed by: cddbd v1.4PL0 Copyright (c) Steve Scherf et al.
# Submitted via: ExactAudioCopy v0.90b4
#
DISCID=6c097a0a
DTITLE=I Want It All - Al Stone
DYEAR=1997
DGENRE=Blues
TTITLE0=I Want It All (59 Cadillac)
TTITLE1=Strange
TTITLE2=The Captain
TTITLE3=She's Gone
TTITLE4=Blind Dog
TTITLE5=Pontiac 4 Door
TTITLE6=Drunk Again
TTITLE7=Old # 9
TTITLE8=12 Personalities
TTITLE9=Don't Try Da Change Me
EXTD=
EXTT0=
EXTT1=
EXTT2=
EXTT3=
EXTT4=
EXTT5=
EXTT6=
EXTT7=
EXTT8=
EXTT9=
PLAYORDER=
